<?xml version="1.0" encoding="utf-8"?>
<!-- Generator: Adobe Illustrator 18.1.1, SVG Export Plug-In . SVG Version: 6.00 Build 0)  -->
<svg version="1.1" id="Layer_1" xmlns="http://www.w3.org/2000/svg" xmlns:xlink="http://www.w3.org/1999/xlink" x="0px" y="0px"
	 viewBox="0 0 55.1 78.5" enable-background="new 0 0 55.1 78.5" xml:space="preserve">
<circle fill="none" stroke="#FFFFFF" stroke-width="2" stroke-miterlimit="10" cx="27.8" cy="16" r="7.6"/>
<path fill="none" stroke="#FFFFFF" stroke-width="2" stroke-linejoin="round" stroke-miterlimit="10" d="M28,23.7L7.6,76.2L28,23.7z
	"/>
<path fill="none" stroke="#FFFFFF" stroke-width="2" stroke-linejoin="round" stroke-miterlimit="10" d="M7.6,76.2l32.5-21.1
	L7.6,76.2z"/>
<line fill="none" stroke="#FFFFFF" stroke-width="2" stroke-linejoin="bevel" stroke-miterlimit="10" x1="40.2" y1="55.1" x2="21.1" y2="41.5"/>
<polygon fill="none" stroke="#FFFFFF" stroke-width="2" stroke-linecap="round" stroke-linejoin="round" stroke-miterlimit="10" points="
	15.8,55.1 48.3,76.2 28,23.7 "/>
<line fill="none" stroke="#FFFFFF" stroke-width="2" stroke-linejoin="bevel" stroke-miterlimit="10" x1="15.8" y1="55.1" x2="34.9" y2="41.5"/>
<path fill="none" stroke="#FFFFFF" stroke-width="2" stroke-linecap="round" stroke-linejoin="round" stroke-miterlimit="10" d="
	M15.1,1.6C7.6,1.6,1.6,7.7,1.6,15.2s6.1,13.6,13.6,13.6"/>
<path fill="none" stroke="#FFFFFF" stroke-width="2" stroke-linecap="round" stroke-linejoin="round" stroke-miterlimit="10" d="
	M15.1,7.5c-4.3,0-7.7,3.4-7.7,7.7s3.4,7.7,7.7,7.7"/>
<path fill="none" stroke="#FFFFFF" stroke-width="2" stroke-linecap="round" stroke-linejoin="round" stroke-miterlimit="10" d="
	M40.1,28.9c7.5,0,13.6-6,13.6-13.5c0-7.5-6-13.6-13.5-13.6"/>
<path fill="none" stroke="#FFFFFF" stroke-width="2" stroke-linecap="round" stroke-linejoin="round" stroke-miterlimit="10" d="
	M40.1,23c4.3,0,7.7-3.4,7.7-7.7c0-4.3-3.4-7.7-7.7-7.7"/>
</svg>
