<?xml version="1.0" encoding="utf-8"?>
<!-- Generator: Adobe Illustrator 18.1.1, SVG Export Plug-In . SVG Version: 6.00 Build 0)  -->
<svg version="1.1" xmlns="http://www.w3.org/2000/svg" xmlns:xlink="http://www.w3.org/1999/xlink" x="0px" y="0px"
	 viewBox="0 0 239.5 140" enable-background="new 0 0 239.5 140" xml:space="preserve">
<g id="Layer_2">
</g>
<g id="Layer_1">
	<path fill="#E44E95" d="M45.6,139H21.6c-2.2,0-3.9-1.7-3.9-3.9l0,0c0-2.2,1.7-3.9,3.9-3.9h24.1c2.2,0,3.9,1.7,3.9,3.9l0,0
		C49.5,137.3,47.8,139,45.6,139z"/>
	<rect x="172.6" y="131.2" fill="#FCAE65" width="28.9" height="7.8"/>
	<path fill="#FCAE65" d="M202.6,139h-24.1c-2.2,0-3.9-1.7-3.9-3.9l0,0c0-2.2,1.7-3.9,3.9-3.9h24.1c2.2,0,3.9,1.7,3.9,3.9l0,0
		C206.5,137.3,204.7,139,202.6,139z"/>
	<rect x="81" y="131.2" fill="#718CD9" width="31.9" height="7.8"/>
	<rect x="112.8" y="131.2" fill="#4FC1A0" width="31.9" height="7.8"/>
	<rect x="144.7" y="131.2" fill="#9CD27C" width="31.9" height="7.8"/>
	<g>
		<path fill="#E44E95" d="M0,5.4L0,5.4v36.7c0,2.3,1.9,4.2,4.2,4.2c2.3,0,4.2-1.9,4.2-4.2v-11H4.2c-2.3,0-4.2-1.9-4.2-4.2
			c0-2.3,1.9-4.2,4.2-4.2h4.2v-13H4.2C1.9,9.6,0,7.7,0,5.4"/>
		<path fill="#9CD27C" d="M20.8,22.7H8.4v8.4h10.3l-1.2-1.6c-0.4-0.5-0.7-1.1-0.8-1.7c0,0,0,0,0,0c0,0,0,0,0,0c0,0,0,0,0,0
			c0,0,0,0,0,0c-0.1-0.3-0.1-0.7-0.1-1c0-0.7,0.2-1.3,0.5-1.8c0,0,0,0,0,0c0,0,0,0,0,0c0.2-0.4,0.5-0.9,0.9-1.2
			c0.5-0.4,1-0.7,1.6-0.9c0,0,0,0,0,0c0,0,0,0,0,0c0,0,0,0,0,0c0,0,0,0,0,0c0,0,0,0,0,0c0,0,0,0,0,0C20.1,22.7,20.4,22.7,20.8,22.7"
			/>
		<path fill="#949E5C" d="M8.4,22.7H4.2c-2.3,0-4.2,1.9-4.2,4.2c0,2.3,1.9,4.2,4.2,4.2h4.2V22.7"/>
		<path fill="#F79B63" d="M21.9,1.2H4.2C1.9,1.2,0,3.1,0,5.4l0,0c0-2.3,1.9-4.2,4.2-4.2c2.3,0,4.2,1.9,4.2,4.2v4.2h13.5l0,0l0,0
			c-2.3,0-4.2-1.9-4.2-4.2C17.7,3.1,19.6,1.2,21.9,1.2"/>
		<path fill="#F47945" d="M4.2,1.2C1.9,1.2,0,3.1,0,5.4c0,2.3,1.9,4.2,4.2,4.2h4.2V5.4C8.4,3.1,6.6,1.2,4.2,1.2"/>
		<path fill="#4FC1A0" d="M20.8,22.7C20.8,22.7,20.8,22.7,20.8,22.7L20.8,22.7L20.8,22.7L20.8,22.7C20.9,22.7,20.8,22.7,20.8,22.7"
			/>
		<path fill="#31B378" d="M16.7,27.8C16.7,27.8,16.7,27.8,16.7,27.8C16.7,27.8,16.7,27.8,16.7,27.8 M16.7,27.8
			C16.7,27.8,16.7,27.8,16.7,27.8C16.7,27.8,16.7,27.8,16.7,27.8 M16.6,26.8c0,0.3,0,0.7,0.1,1c-0.1-0.3-0.1-0.6-0.1-0.9
			C16.6,26.8,16.6,26.8,16.6,26.8 M17.1,24.9C17.1,24.9,17.1,24.9,17.1,24.9C17.1,24.9,17.1,24.9,17.1,24.9 M18,23.7
			c-0.4,0.4-0.7,0.8-0.9,1.2C17.3,24.5,17.6,24.1,18,23.7 M19.7,22.8C19.7,22.8,19.7,22.8,19.7,22.8C19.7,22.8,19.7,22.8,19.7,22.8
			 M19.7,22.8C19.7,22.8,19.7,22.8,19.7,22.8C19.7,22.8,19.7,22.8,19.7,22.8 M19.7,22.8C19.7,22.8,19.7,22.8,19.7,22.8
			C19.7,22.8,19.7,22.8,19.7,22.8 M20.8,22.7L20.8,22.7c-0.4,0-0.8,0.1-1.1,0.1C20.1,22.7,20.5,22.7,20.8,22.7"/>
		<path fill="#4FC1A0" d="M28.3,29.6c-1.9,0.9-4.1,1.4-6.4,1.4h-1.1l0,0h-2.1l10.5,13.6c0.8,1.1,2.1,1.6,3.3,1.6
			c0.9,0,1.8-0.3,2.6-0.9c1.8-1.4,2.2-4.1,0.8-5.9L28.3,29.6"/>
		<path fill="#31B378" d="M17.5,29.5l1.2,1.6h2.1l0,0C19.5,31.1,18.3,30.5,17.5,29.5"/>
		<path fill="#718CD9" d="M21.9,1.2L21.9,1.2c2.3,0,4.2,1.9,4.2,4.2c0,2.3-1.9,4.2-4.2,4.2c3.6,0,6.5,2.9,6.5,6.5
			c0,3.6-2.9,6.5-6.5,6.5h-1c0.1,0,0.2,0,0.2,0c0.5,0,1,0.2,1.5,0.4c0,0,0,0,0,0c0,0,0,0,0,0c0.6,0.3,1.1,0.6,1.5,1.1
			c0,0,0.1,0.1,0.1,0.1l4.1,5.3c5-2.4,8.5-7.6,8.5-13.5C36.8,7.9,30.1,1.2,21.9,1.2"/>
		<path fill="#547FB3" d="M24.1,24.2c0,0,0.1,0.1,0.1,0.1l0,0C24.2,24.3,24.1,24.2,24.1,24.2 M22.6,23C22.6,23,22.6,23,22.6,23
			C22.6,23,22.6,23,22.6,23 M21.1,22.7c0.5,0,1,0.2,1.5,0.4C22.1,22.8,21.6,22.7,21.1,22.7"/>
		<path fill="#7074AB" d="M21.9,1.2L21.9,1.2c-2.3,0-4.2,1.9-4.2,4.2c0,2.3,1.9,4.2,4.2,4.2l0,0c2.3,0,4.2-1.9,4.2-4.2
			C26.1,3.1,24.2,1.2,21.9,1.2"/>
		<path fill="#547FB3" d="M16.7,27.8c0.1,0.6,0.4,1.2,0.8,1.7l0,0C17.1,28.9,16.8,28.4,16.7,27.8 M16.7,27.8
			C16.7,27.8,16.7,27.8,16.7,27.8C16.7,27.8,16.7,27.8,16.7,27.8 M16.7,27.7C16.7,27.8,16.7,27.8,16.7,27.7
			C16.7,27.8,16.7,27.8,16.7,27.7 M17.1,24.9c-0.3,0.5-0.5,1.2-0.5,1.8C16.6,26.1,16.8,25.5,17.1,24.9 M17.1,24.9
			C17.1,24.9,17.1,24.9,17.1,24.9C17.1,24.9,17.1,24.9,17.1,24.9 M19.7,22.8c-0.6,0.2-1.2,0.5-1.6,0.9c0.1-0.1,0.1-0.1,0.2-0.2
			C18.7,23.2,19.2,23,19.7,22.8 M19.7,22.8C19.7,22.8,19.7,22.8,19.7,22.8C19.7,22.8,19.7,22.8,19.7,22.8 M19.7,22.8
			C19.7,22.8,19.7,22.8,19.7,22.8C19.7,22.8,19.7,22.8,19.7,22.8 M19.7,22.8C19.7,22.8,19.7,22.8,19.7,22.8
			C19.7,22.8,19.7,22.8,19.7,22.8"/>
		<path fill="#3D79BD" d="M24.2,24.3c0.5,0.7,0.9,1.6,0.9,2.6c0,2.3-1.9,4.2-4.2,4.2h1.1c2.3,0,4.5-0.5,6.4-1.4L24.2,24.3 M22.6,23
			c0.6,0.3,1.1,0.7,1.5,1.1C23.7,23.7,23.2,23.3,22.6,23 M22.6,23C22.6,23,22.6,23,22.6,23C22.6,23,22.6,23,22.6,23 M20.9,22.7
			L20.9,22.7L20.9,22.7c0.1,0,0.2,0,0.2,0C21,22.7,21,22.7,20.9,22.7"/>
		<path fill="#3476B1" d="M20.8,22.7L20.8,22.7c-0.4,0-0.8,0.1-1.1,0.1c0,0,0,0,0,0c0,0,0,0,0,0c0,0,0,0,0,0c0,0,0,0,0,0
			c0,0,0,0,0,0c0,0,0,0,0,0c-0.5,0.1-1,0.4-1.4,0.7c-0.1,0.1-0.2,0.1-0.2,0.2c-0.4,0.3-0.7,0.7-0.9,1.2c0,0,0,0,0,0c0,0,0,0,0,0
			c-0.3,0.6-0.5,1.2-0.5,1.8c0,0,0,0.1,0,0.1c0,0.3,0,0.6,0.1,0.9c0,0,0,0,0,0c0,0,0,0,0,0c0,0,0,0,0,0c0,0,0,0,0,0
			c0.1,0.6,0.4,1.2,0.8,1.7l0,0c0.8,1,2,1.6,3.3,1.6l0,0c2.3,0,4.2-1.9,4.2-4.2c0-1-0.3-1.8-0.9-2.6l0,0c0,0-0.1-0.1-0.1-0.1
			c-0.4-0.5-0.9-0.9-1.5-1.1c0,0,0,0,0,0c0,0,0,0,0,0c-0.5-0.2-1-0.3-1.5-0.4C21,22.7,20.9,22.7,20.8,22.7"/>
	</g>
	<g>
		<path fill="#E44E95" d="M212.9,0C199.7,0,189,10.7,189,23.9c0-2.3,1.9-4.2,4.2-4.2c2.3,0,4.2,1.9,4.2,4.2l0,0
			c0-8.5,6.9-15.5,15.5-15.5l0,0l0,0c-2.3,0-4.2-1.9-4.2-4.2C208.7,1.9,210.6,0,212.9,0"/>
		<path fill="#718CD9" d="M197.4,23.9L197.4,23.9c0,2.3-1.9,4.2-4.2,4.2c-2.3,0-4.2-1.9-4.2-4.2c0,13.2,10.7,23.9,23.9,23.9l0,0l0,0
			c-2.3,0-4.2-1.9-4.2-4.2c0-2.3,1.9-4.2,4.2-4.2C204.4,39.4,197.4,32.4,197.4,23.9"/>
		<path fill="#6958BA" d="M193.2,19.7c-2.3,0-4.2,1.9-4.2,4.2l0,0l0,0c0,2.3,1.9,4.2,4.2,4.2c2.3,0,4.2-1.9,4.2-4.2l0,0l0,0
			C197.4,21.6,195.5,19.7,193.2,19.7"/>
		<path fill="#FCAE65" d="M236.8,23.9c0,2.3-1.9,4.2-4.2,4.2s-4.2-1.9-4.2-4.2l0,0c0,8.5-6.9,15.5-15.5,15.5l0,0l0,0
			c2.3,0,4.2,1.9,4.2,4.2c0,2.3-1.9,4.2-4.2,4.2C226.1,47.8,236.8,37.1,236.8,23.9L236.8,23.9"/>
		<path fill="#D28B5A" d="M212.9,39.4c-2.3,0-4.2,1.9-4.2,4.2c0,2.3,1.9,4.2,4.2,4.2l0,0c2.3,0,4.2-1.9,4.2-4.2
			C217.1,41.3,215.2,39.4,212.9,39.4L212.9,39.4"/>
		<path fill="#4FC1A0" d="M212.9,0L212.9,0L212.9,0c2.3,0,4.2,1.9,4.2,4.2c0,2.3-1.9,4.2-4.2,4.2c8.5,0,15.5,6.9,15.5,15.5l0,0
			c0-2.3,1.9-4.2,4.2-4.2s4.2,1.9,4.2,4.2l0,0C236.8,10.7,226.1,0,212.9,0"/>
		<path fill="#468D81" d="M212.9,0L212.9,0c-2.3,0-4.2,1.9-4.2,4.2c0,2.3,1.9,4.2,4.2,4.2l0,0c2.3,0,4.2-1.9,4.2-4.2
			C217.1,1.9,215.2,0,212.9,0"/>
		<path fill="#4EA972" d="M232.6,19.7c-2.3,0-4.2,1.9-4.2,4.2c0,2.3,1.9,4.2,4.2,4.2s4.2-1.9,4.2-4.2
			C236.8,21.6,234.9,19.7,232.6,19.7"/>
	</g>
	<g>
		<path fill="#B552C0" d="M50.6,99.8c-0.6,0.3-1.2,0.4-1.8,0.4c0,0,0,0,0,0C49.4,100.2,50,100,50.6,99.8 M51.7,99
			C51.7,99,51.7,99,51.7,99C51.7,99,51.7,99,51.7,99 M45.8,98.9c0.3,0.3,0.7,0.6,1.1,0.8c-0.2-0.1-0.5-0.3-0.7-0.4
			C46.1,99.2,46,99.1,45.8,98.9 M52.2,98.4L52.2,98.4c-0.2,0.3-0.3,0.4-0.5,0.6C51.9,98.8,52.1,98.6,52.2,98.4 M26.8,71.7
			c0,0,0,0.1,0,0.1v0C26.8,71.7,26.8,71.7,26.8,71.7 M34.4,69.3c0.5,0.7,0.8,1.5,0.8,2.5v12.9l10.1,13.7c-1-1.5-1-3.5,0.1-5l3.4-4.5
			L34.4,69.3 M34.3,69.1C34.3,69.1,34.3,69.1,34.3,69.1C34.3,69.1,34.3,69.1,34.3,69.1 M28.4,68.5c-0.5,0.4-0.9,0.9-1.1,1.4
			C27.5,69.3,27.9,68.8,28.4,68.5 M32.9,68c0.6,0.3,1,0.7,1.4,1.1C33.9,68.6,33.4,68.2,32.9,68 M29.5,67.8
			C29.5,67.8,29.5,67.8,29.5,67.8C29.5,67.8,29.5,67.8,29.5,67.8 M29.5,67.8C29.5,67.8,29.5,67.8,29.5,67.8
			C29.5,67.8,29.5,67.8,29.5,67.8 M31,67.6c-0.5,0-1,0.1-1.5,0.3C30,67.7,30.5,67.6,31,67.6c0.1,0,0.2,0,0.3,0
			C31.2,67.6,31.1,67.6,31,67.6"/>
		<path fill="#718CD9" d="M46.9,99.7c0.6,0.3,1.2,0.4,1.9,0.4c0,0,0,0,0,0C48.2,100.2,47.5,100,46.9,99.7 M51.7,99
			c-0.1,0.1-0.3,0.2-0.4,0.3c-0.2,0.2-0.5,0.3-0.7,0.4C51,99.6,51.4,99.3,51.7,99 M51.7,99C51.7,99,51.7,99,51.7,99
			C51.7,99,51.7,99,51.7,99 M45.4,98.4c0.1,0.2,0.3,0.4,0.5,0.6C45.7,98.8,45.5,98.6,45.4,98.4L45.4,98.4 M71.4,71.4
			c0,0.1,0,0.2,0,0.3v0.1C71.4,71.7,71.4,71.6,71.4,71.4 M63.8,69.3l-15,19.6l3.3,4.5c1.1,1.5,1.1,3.5,0,5L63,84.3V71.8
			C63,70.8,63.3,70,63.8,69.3 M70,68.6c0.5,0.4,0.8,0.9,1.1,1.4C70.8,69.4,70.4,69,70,68.6 M65.5,67.9c-0.5,0.2-1,0.6-1.4,1
			C64.4,68.5,64.9,68.2,65.5,67.9 M68.8,67.8C68.8,67.8,68.8,67.8,68.8,67.8C68.8,67.8,68.8,67.8,68.8,67.8 M68.7,67.8
			C68.7,67.8,68.7,67.8,68.7,67.8C68.7,67.8,68.7,67.8,68.7,67.8 M67.2,67.6c-0.1,0-0.2,0-0.4,0C67,67.6,67.1,67.6,67.2,67.6
			c0.5,0,1,0.1,1.5,0.3C68.2,67.6,67.7,67.6,67.2,67.6"/>
		<path fill="#5B59C7" d="M48.9,88.9l-3.4,4.5c-1.1,1.5-1.1,3.5-0.1,5l0.1,0.1c0.1,0.2,0.3,0.3,0.4,0.5c0.1,0.1,0.3,0.3,0.4,0.4
			c0.2,0.2,0.4,0.3,0.7,0.4c0.6,0.3,1.2,0.4,1.9,0.4c0.6,0,1.2-0.1,1.8-0.4c0.2-0.1,0.5-0.3,0.7-0.4c0.1-0.1,0.3-0.2,0.4-0.3
			c0,0,0,0,0,0c0,0,0,0,0,0c0.2-0.2,0.3-0.3,0.4-0.5l0.1-0.1c1-1.4,1.1-3.5,0-5L48.9,88.9"/>
		<path fill="#4FC1A0" d="M71.4,71.8c0,0.9-0.3,1.7-0.9,2.5L63,84.3v24.2c0,2.3,1.9,4.2,4.2,4.2c2.3,0,4.2-1.9,4.2-4.2V71.8 M71,70
			c0.2,0.5,0.3,1,0.4,1.5C71.4,70.9,71.3,70.4,71,70 M64.1,69c-0.1,0.1-0.2,0.2-0.2,0.3l0,0C63.9,69.1,64,69.1,64.1,69 M68.8,67.8
			c0.4,0.1,0.7,0.3,1,0.6c0.1,0,0.1,0.1,0.2,0.2C69.6,68.3,69.2,68,68.8,67.8 M68.7,67.8C68.7,67.8,68.8,67.8,68.7,67.8
			C68.8,67.8,68.7,67.8,68.7,67.8 M68.7,67.8C68.7,67.8,68.7,67.8,68.7,67.8C68.7,67.8,68.7,67.8,68.7,67.8 M66.9,67.6
			c-0.5,0-1,0.2-1.4,0.4C65.9,67.7,66.4,67.6,66.9,67.6"/>
		<path fill="#259F95" d="M67.2,67.6c-0.1,0-0.2,0-0.4,0c-0.5,0-1,0.2-1.4,0.4c-0.5,0.2-1,0.6-1.4,1c-0.1,0.1-0.1,0.2-0.2,0.2l0,0
			C63.3,70,63,70.8,63,71.8v12.5l7.6-9.9c0.6-0.7,0.9-1.6,0.9-2.5v-0.1c0-0.1,0-0.2,0-0.3c0-0.5-0.2-1-0.4-1.5
			c-0.3-0.5-0.6-1-1.1-1.4c-0.1-0.1-0.1-0.1-0.2-0.2c-0.3-0.2-0.7-0.4-1-0.6c0,0,0,0,0,0c0,0,0,0,0,0c0,0,0,0,0,0c0,0,0,0,0,0
			C68.3,67.6,67.8,67.6,67.2,67.6"/>
		<path fill="#E44E95" d="M26.8,71.8v36.7c0,2.3,1.9,4.2,4.2,4.2c2.3,0,4.2-1.9,4.2-4.2V84.6l-7.6-10.4
			C27.1,73.5,26.8,72.7,26.8,71.8 M27.3,69.8c-0.3,0.5-0.4,1.2-0.5,1.8C26.8,71,27,70.4,27.3,69.8 M34.3,69.1c0,0,0.1,0.1,0.1,0.2
			l0,0C34.4,69.2,34.4,69.2,34.3,69.1 M34.3,69.1C34.3,69.1,34.3,69.1,34.3,69.1C34.3,69.1,34.3,69.1,34.3,69.1 M29.5,67.8
			c-0.4,0.2-0.8,0.4-1.1,0.6c0,0,0.1-0.1,0.1-0.1C28.8,68.2,29.1,68,29.5,67.8 M29.5,67.8C29.5,67.8,29.5,67.8,29.5,67.8
			C29.5,67.8,29.5,67.8,29.5,67.8 M29.5,67.8C29.5,67.8,29.5,67.8,29.5,67.8C29.5,67.8,29.5,67.8,29.5,67.8 M31.4,67.6
			c0.5,0,1,0.2,1.5,0.4C32.4,67.7,31.9,67.6,31.4,67.6"/>
		<path fill="#CF1B82" d="M31,67.6c-0.5,0-1,0.1-1.5,0.3c0,0,0,0,0,0c0,0,0,0,0,0c0,0,0,0,0,0c0,0,0,0,0,0c-0.3,0.1-0.6,0.3-0.9,0.5
			c0,0-0.1,0.1-0.1,0.1c-0.5,0.4-0.9,0.8-1.1,1.4c-0.3,0.6-0.4,1.2-0.5,1.8c0,0,0,0.1,0,0.1v0c0,0.9,0.3,1.7,0.8,2.5l7.6,10.4V71.8
			c0-0.9-0.3-1.8-0.8-2.5l0,0c0-0.1-0.1-0.1-0.1-0.2c0,0,0,0,0,0c0,0,0,0,0,0c-0.4-0.5-0.9-0.9-1.4-1.1c-0.5-0.2-1-0.4-1.5-0.4
			C31.2,67.6,31.1,67.6,31,67.6"/>
	</g>
	<path fill="#E44E95" d="M170.1,1c-2.3,0-4.2,1.9-4.2,4.2V42c0,2.3,1.9,4.2,4.2,4.2c2.3,0,4.2-1.9,4.2-4.2V5.3
		C174.3,2.9,172.4,1,170.1,1"/>
	<g>
		<path fill="#4FC1A0" d="M109,5.3L109,5.3v36.7c0,2.3,1.9,4.2,4.2,4.2l0,0c-2.3,0-4.2-1.9-4.2-4.2c0-2.3,1.9-4.2,4.2-4.2h4.2V9.6
			h-4.2C110.9,9.6,109,7.7,109,5.3"/>
		<path fill="#718CD9" d="M129.7,1.1h-16.5c-2.3,0-4.2,1.9-4.2,4.2l0,0c0-2.3,1.9-4.2,4.2-4.2c2.3,0,4.2,1.9,4.2,4.2v4.2h12.3l0,0
			c-2.3,0-4.2-1.9-4.2-4.2C125.5,3,127.4,1.1,129.7,1.1 M129.9,1.1h-0.2c0.1,0,0.2,0,0.3,0C129.9,1.1,129.9,1.1,129.9,1.1"/>
		<path fill="#3D79BD" d="M113.2,1.1c-2.3,0-4.2,1.9-4.2,4.2c0,2.3,1.9,4.2,4.2,4.2h4.2V5.3C117.4,3,115.6,1.1,113.2,1.1"/>
		<path fill="#9CD27C" d="M129.7,37.8h-12.3v4.2c0,2.3-1.9,4.2-4.2,4.2h16.6c0,0,0.1,0,0.1,0c-0.1,0-0.2,0-0.3,0
			c-2.3,0-4.2-1.9-4.2-4.2C125.5,39.7,127.4,37.8,129.7,37.8"/>
		<path fill="#68C060" d="M117.4,37.8h-4.2c-2.3,0-4.2,1.9-4.2,4.2c0,2.3,1.9,4.2,4.2,4.2l0,0c2.3,0,4.2-1.9,4.2-4.2V37.8"/>
		<path fill="#F79B63" d="M130,1.1c2.3,0.1,4.1,1.9,4.1,4.2c0,2.3-1.9,4.2-4.2,4.2h-0.2c7.5,0,12.9,5.9,12.9,14.1l0,0
			c0-2.3,1.9-4.2,4.2-4.2c2.3,0,4.2,1.9,4.2,4.2C151,10.9,142,1.3,130,1.1"/>
		<path fill="#6D5554" d="M129.7,1.1L129.7,1.1c-2.3,0-4.2,1.9-4.2,4.2c0,2.3,1.9,4.2,4.2,4.2l0,0h0.2c2.3,0,4.2-1.9,4.2-4.2
			c0-2.3-1.8-4.2-4.1-4.2C129.9,1.1,129.8,1.1,129.7,1.1"/>
		<path fill="#B552C0" d="M151,23.7c0,2.3-1.9,4.2-4.2,4.2c-2.3,0-4.2-1.9-4.2-4.2l0,0c0,8.2-5.4,14.1-12.9,14.1l0,0h0.1
			c2.3,0,4.2,1.9,4.2,4.2c0,2.3-1.8,4.2-4.1,4.2C142,46.1,151,36.5,151,23.7"/>
		<path fill="#974499" d="M129.8,37.8h-0.1c-2.3,0-4.2,1.9-4.2,4.2c0,2.3,1.9,4.2,4.2,4.2c0.1,0,0.2,0,0.3,0
			c2.3-0.1,4.1-1.9,4.1-4.2C134.1,39.7,132.2,37.8,129.8,37.8"/>
		<path fill="#B23492" d="M146.8,19.5c-2.3,0-4.2,1.9-4.2,4.2l0,0l0,0c0,2.3,1.9,4.2,4.2,4.2c2.3,0,4.2-1.9,4.2-4.2l0,0l0,0
			C151,21.4,149.1,19.5,146.8,19.5"/>
	</g>
	<g>
		<path fill="#4FC1A0" d="M201.1,76.6h-8.4v32.5c0,2.3,1.9,4.2,4.2,4.2c2.3,0,4.2-1.9,4.2-4.2V76.6"/>
		<path fill="#B552C0" d="M212.3,68.2h-30.8c-2.3,0-4.2,1.9-4.2,4.2c0,2.3,1.9,4.2,4.2,4.2h11.2v-4.2c0-2.3,1.9-4.2,4.2-4.2
			c2.3,0,4.2,1.9,4.2,4.2v4.2h11.2c2.3,0,4.2-1.9,4.2-4.2C216.5,70.1,214.6,68.2,212.3,68.2"/>
		<path fill="#B13B78" d="M196.9,68.2c-2.3,0-4.2,1.9-4.2,4.2v4.2h8.4v-4.2C201.1,70.1,199.2,68.2,196.9,68.2"/>
	</g>
	<g>
		<path fill="#4FC1A0" d="M152,65.1c-4.9,0-8.7,1.2-11.3,3.6c-2.6,2.4-4,5.8-4.1,10.1c-0.1,3,0.9,7.1,5.8,10.3
			c2.3,1.5,5.2,2.6,9.1,3.4c0,0,0,0,0.1,0c0,0,0,0,0,0c-2.3-0.5-3.7-2.7-3.3-5c0.4-2,2.2-3.4,4.1-3.4c0.3,0,0.6,0,0.9,0.1
			c0,0,0,0,0,0c0,0,0,0,0,0c-8.3-1.8-8.2-4.4-8.2-5.2c0.1-2.8,1-3.7,1.4-4c1-1,3-1.4,5.6-1.4c0.6,0,1.1,0,1.7,0.1
			c-2.3-0.2-4.1-2.2-3.9-4.5c0.2-2.2,2-3.9,4.2-3.9c0.1,0,0.2,0,0.3,0C153.5,65.1,152.7,65.1,152,65.1"/>
		<path fill="#E44E95" d="M154.3,65.2L154.3,65.2c2.3,0.2,4.1,2.2,3.9,4.5c-0.2,2.2-2,3.9-4.2,3.9c-0.1,0-0.2,0-0.3,0c0,0,0,0,0,0
			c0,0,0,0,0,0c2.2,0.2,5.1,1.1,8.5,2.9c0.6,0.3,1.3,0.5,1.9,0.5c1.5,0,3-0.8,3.8-2.3c1.1-2.1,0.3-4.6-1.8-5.7
			C161.5,66.7,157.7,65.4,154.3,65.2L154.3,65.2"/>
		<path fill="#B13B78" d="M154,65.2c-2.2,0-4,1.7-4.2,3.9c-0.2,2.3,1.6,4.3,3.9,4.5c0,0,0,0,0,0c0.1,0,0.2,0,0.3,0
			c2.2,0,4-1.7,4.2-3.9c0.2-2.3-1.6-4.3-3.9-4.5l0,0C154.2,65.2,154.1,65.2,154,65.2"/>
		<path fill="#9CD27C" d="M153.2,84.2c2.3,0.5,3.7,2.7,3.2,5c-0.4,2-2.2,3.3-4.1,3.3c-0.3,0-0.6,0-0.8-0.1
			c10.5,2.2,10.5,5.1,10.5,6.2l0,0c0-2.3,1.9-4.2,4.2-4.2c2.3,0,4.2,1.9,4.2,4.2c0-2.9-1-7.1-5.7-10.2
			C162,86.7,158.3,85.3,153.2,84.2"/>
		<path fill="#309F4E" d="M152.3,84.1c-2,0-3.7,1.4-4.1,3.4c-0.5,2.3,1,4.5,3.3,5c0,0,0,0,0,0c0.3,0.1,0.6,0.1,0.8,0.1
			c1.9,0,3.7-1.4,4.1-3.3c0.5-2.3-1-4.5-3.2-5c0,0,0,0,0,0C152.9,84.2,152.6,84.1,152.3,84.1"/>
		<path fill="#718CD9" d="M170.4,98.7c0,2.3-1.9,4.2-4.2,4.2c-2.3,0-4.2-1.9-4.2-4.2l0,0c0,0.9-0.2,2.3-1.4,3.4
			c-1.3,1.3-3.6,2-6.5,2c-0.2,0-0.3,0-0.5,0c2.3,0.1,4.2,2,4.1,4.3c-0.1,2.3-1.9,4.1-4.2,4.1l-0.1,0l0,0l0,0c0.2,0,0.5,0,0.7,0
			c6.5,0,10.4-2.4,12.4-4.4C169,105.7,170.4,102.3,170.4,98.7"/>
		<path fill="#547FB3" d="M166.2,94.5c-2.3,0-4.2,1.9-4.2,4.2l0,0l0,0c0,2.3,1.9,4.2,4.2,4.2c2.3,0,4.2-1.9,4.2-4.2l0,0l0,0
			C170.4,96.4,168.5,94.5,166.2,94.5"/>
		<path fill="#FCAE65" d="M139.3,99.2c-1.4,0-2.7,0.7-3.5,1.9c-1.3,1.9-0.7,4.6,1.2,5.8c4,2.6,9.1,5.3,16.3,5.5
			c-2.3-0.1-4.2-2-4.1-4.3c0.1-2.3,1.9-4.1,4.2-4.1c0,0,0.1,0,0.1,0l0,0l0,0c-5.1-0.1-8.8-2.1-11.9-4.1
			C140.9,99.5,140.1,99.2,139.3,99.2"/>
		<path fill="#D28B5A" d="M153.4,104.1c-2.3,0-4.1,1.8-4.2,4.1c-0.1,2.3,1.8,4.3,4.1,4.3l0,0l0.1,0c2.3,0,4.2-1.8,4.2-4.1
			c0.1-2.3-1.8-4.3-4.1-4.3l0,0C153.5,104.1,153.5,104.1,153.4,104.1"/>
	</g>
	<rect x="20.7" y="131.2" fill="#E44E95" width="28.8" height="7.8"/>
	<path fill="#4FC1A0" d="M76.3,3.6c0.6,1.2,0.6,2.5,0,3.8l-3.8,7.4l7.6,15h6.9c2.3,0,4.2,1.9,4.2,4.2c0,2.3-1.9,4.2-4.2,4.2h-2.6
		l3,5.8c0.7,1.5,2.2,2.3,3.8,2.3c0.6,0,1.3-0.1,1.9-0.5c2.1-1.1,2.9-3.6,1.9-5.7L76.3,3.6 M75.6,2.6L75.6,2.6L75.6,2.6 M69.5,2.6
		c-0.3,0.3-0.5,0.6-0.7,1l0,0C69,3.2,69.2,2.9,69.5,2.6 M75.6,2.6L75.6,2.6L75.6,2.6 M69.5,2.6L69.5,2.6L69.5,2.6 M69.5,2.5
		L69.5,2.5L69.5,2.5 M69.5,2.5L69.5,2.5L69.5,2.5 M74.2,1.6l0.2,0.1c0.4,0.2,0.8,0.5,1.2,0.9C75.2,2.2,74.7,1.8,74.2,1.6 M70.9,1.6
		L70.9,1.6L70.9,1.6 M74.2,1.6L74.2,1.6L74.2,1.6 M72.5,1.3c-0.5,0-1.1,0.1-1.6,0.3C71.4,1.4,71.9,1.3,72.5,1.3"/>
	<path fill="#4CA371" d="M72.5,1.3L72.5,1.3c-0.6,0-1.2,0.1-1.7,0.3l0,0l0,0l-0.2,0.1c-0.4,0.2-0.8,0.5-1.1,0.8l0,0l0,0l0,0l0,0l0,0
		l0,0c-0.3,0.3-0.5,0.6-0.7,1l0,0c-0.6,1.2-0.6,2.6,0,3.8l3.8,7.4l3.8-7.4c0.6-1.2,0.6-2.6,0-3.8l0,0c-0.2-0.4-0.4-0.7-0.7-0.9l0,0
		l0,0l0,0l0,0c-0.3-0.3-0.7-0.6-1.2-0.9l-0.2-0.1l0,0l0,0C73.7,1.4,73.1,1.3,72.5,1.3"/>
	<polyline fill="#E44E95" points="80.2,29.8 64.9,29.8 60.6,38.3 84.5,38.3 80.2,29.8 	"/>
	<path fill="#E23067" d="M64.9,29.8H58c-2.3,0-4.2,1.9-4.2,4.2c0,2.3,1.9,4.2,4.2,4.2h2.6L64.9,29.8"/>
	<path fill="#B13B78" d="M87.1,29.8h-6.9l4.3,8.4h2.6c2.3,0,4.2-1.9,4.2-4.2C91.3,31.7,89.4,29.8,87.1,29.8"/>
	<path fill="#F79B63" d="M68.8,3.6L50.1,40.3c-1.1,2.1-0.2,4.6,1.9,5.7c0.6,0.3,1.3,0.5,1.9,0.5c1.5,0,3-0.8,3.8-2.3l3-5.8H58
		c-2.3,0-4.2-1.9-4.2-4.2c0-2.3,1.9-4.2,4.2-4.2h6.9l7.6-15l-3.8-7.4C68.2,6.2,68.2,4.8,68.8,3.6 M75.7,2.6c0.3,0.3,0.5,0.6,0.7,0.9
		l0,0C76.2,3.3,75.9,2.9,75.7,2.6 M75.6,2.6L75.6,2.6L75.6,2.6 M69.5,2.6L69.5,2.6L69.5,2.6 M75.6,2.6L75.6,2.6L75.6,2.6 M69.5,2.6
		L69.5,2.6L69.5,2.6 M69.5,2.5L69.5,2.5L69.5,2.5 M70.9,1.6c-0.5,0.2-0.9,0.5-1.3,0.9c0.3-0.3,0.7-0.6,1.1-0.8L70.9,1.6 M74.2,1.6
		L74.2,1.6L74.2,1.6 M70.9,1.6L70.9,1.6L70.9,1.6 M72.6,1.3L72.6,1.3L72.6,1.3c0.6,0,1.1,0.1,1.7,0.3C73.7,1.4,73.1,1.3,72.6,1.3"/>
	<g>
		<path fill="#E44E95" d="M107.1,69.3c0.6,1.2,0.6,2.5,0,3.8l-3.8,7.4l7.6,15h6.9c2.3,0,4.2,1.9,4.2,4.2c0,2.3-1.9,4.2-4.2,4.2h-2.6
			l3,5.8c0.7,1.5,2.2,2.3,3.8,2.3c0.6,0,1.3-0.1,1.9-0.5c2.1-1.1,2.9-3.6,1.9-5.7L107.1,69.3 M100.3,68.2c-0.3,0.3-0.6,0.7-0.8,1.1
			l0,0C99.8,68.8,100,68.5,100.3,68.2 M100.3,68.2C100.3,68.2,100.3,68.2,100.3,68.2C100.3,68.2,100.3,68.2,100.3,68.2 M100.3,68.1
			C100.3,68.1,100.3,68.1,100.3,68.1C100.3,68.1,100.3,68.1,100.3,68.1 M106.3,68.1C106.3,68.1,106.3,68.1,106.3,68.1
			C106.3,68.1,106.3,68.1,106.3,68.1 M106.3,68.1C106.3,68.1,106.3,68.1,106.3,68.1C106.3,68.1,106.3,68.1,106.3,68.1 M106.2,68.1
			C106.2,68.1,106.2,68.1,106.2,68.1C106.2,68.1,106.2,68.1,106.2,68.1 M105,67.2c0.1,0,0.1,0.1,0.2,0.1c0.4,0.2,0.7,0.4,1,0.7
			C105.9,67.7,105.5,67.4,105,67.2 M105,67.2C105,67.2,105,67.2,105,67.2C105,67.2,105,67.2,105,67.2 M101.7,67.2
			C101.7,67.2,101.7,67.2,101.7,67.2C101.7,67.2,101.7,67.2,101.7,67.2 M103.2,66.9c-0.5,0-1,0.1-1.5,0.3
			C102.2,67,102.7,66.9,103.2,66.9 M103.2,66.9C103.2,66.9,103.2,66.9,103.2,66.9C103.2,66.9,103.2,66.9,103.2,66.9"/>
		<path fill="#BB2C8A" d="M103.3,66.9C103.3,66.9,103.3,66.9,103.3,66.9C103.2,66.9,103.2,66.9,103.3,66.9c-0.1,0-0.1,0-0.1,0
			c-0.5,0-1,0.1-1.5,0.3c0,0,0,0,0,0c0,0,0,0,0,0c-0.1,0-0.2,0.1-0.3,0.1c-0.4,0.2-0.8,0.5-1.1,0.8c0,0,0,0,0,0c0,0,0,0,0,0
			c0,0,0,0,0,0c0,0,0,0,0,0c-0.3,0.3-0.5,0.6-0.7,1l0,0c-0.6,1.2-0.6,2.5,0,3.8l3.8,7.4l3.8-7.4c0.6-1.2,0.6-2.6,0-3.8l0,0
			c-0.2-0.4-0.5-0.8-0.8-1.1c0,0,0,0,0,0c0,0,0,0,0,0c0,0,0,0,0,0c0,0,0,0,0,0c0,0,0,0,0,0c0,0,0,0,0,0c-0.3-0.3-0.6-0.5-1-0.7
			c-0.1,0-0.1-0.1-0.2-0.1c0,0,0,0,0,0c0,0,0,0,0,0C104.5,67,103.9,66.9,103.3,66.9"/>
		<polyline fill="#B552C0" points="111,95.5 95.7,95.5 91.4,103.9 115.2,103.9 111,95.5 		"/>
		<path fill="#8B30B4" d="M95.7,95.5h-6.9c-2.3,0-4.2,1.9-4.2,4.2c0,2.3,1.9,4.2,4.2,4.2h2.6L95.7,95.5"/>
		<path fill="#AC1DA0" d="M117.8,95.5H111l4.3,8.4h2.6c2.3,0,4.2-1.9,4.2-4.2C122.1,97.4,120.2,95.5,117.8,95.5"/>
		<path fill="#718CD9" d="M99.5,69.2l-18.6,36.7c-1.1,2.1-0.2,4.6,1.9,5.7c0.6,0.3,1.3,0.5,1.9,0.5c1.5,0,3-0.8,3.8-2.3l3-5.8h-2.6
			c-2.3,0-4.2-1.9-4.2-4.2c0-2.3,1.9-4.2,4.2-4.2h6.9l7.6-15L99.6,73C98.9,71.8,99,70.4,99.5,69.2 M100.3,68.2
			C100.3,68.2,100.3,68.2,100.3,68.2C100.3,68.2,100.3,68.2,100.3,68.2 M100.3,68.1C100.3,68.1,100.3,68.1,100.3,68.1
			C100.3,68.1,100.3,68.1,100.3,68.1 M106.3,68.1c0.3,0.3,0.6,0.7,0.8,1.1l0,0C106.9,68.8,106.6,68.5,106.3,68.1 M106.3,68.1
			C106.3,68.1,106.3,68.1,106.3,68.1C106.3,68.1,106.3,68.1,106.3,68.1 M106.3,68.1C106.3,68.1,106.3,68.1,106.3,68.1
			C106.3,68.1,106.3,68.1,106.3,68.1 M106.2,68.1C106.2,68.1,106.2,68.1,106.2,68.1C106.2,68.1,106.2,68.1,106.2,68.1 M105,67.2
			C105,67.2,105,67.2,105,67.2C105,67.2,105,67.2,105,67.2 M101.7,67.2c-0.5,0.2-1,0.5-1.4,0.9c0.3-0.3,0.7-0.6,1.1-0.8
			C101.5,67.3,101.6,67.3,101.7,67.2 M101.7,67.2C101.7,67.2,101.7,67.2,101.7,67.2C101.7,67.2,101.7,67.2,101.7,67.2 M103.2,66.9
			C103.2,66.9,103.2,66.9,103.2,66.9C103.2,66.9,103.2,66.9,103.2,66.9 M103.3,66.9C103.3,66.9,103.3,66.9,103.3,66.9
			C103.3,66.9,103.3,66.9,103.3,66.9c0.6,0,1.1,0.1,1.7,0.3C104.5,67,103.9,66.9,103.3,66.9"/>
	</g>
	<rect x="49.1" y="131.2" fill="#B552C0" width="31.9" height="7.8"/>
</g>
</svg>
