<?xml version="1.0" encoding="utf-8"?>
<!-- Generator: Adobe Illustrator 18.1.1, SVG Export Plug-In . SVG Version: 6.00 Build 0)  -->
<svg version="1.1" id="Layer_1" xmlns="http://www.w3.org/2000/svg" xmlns:xlink="http://www.w3.org/1999/xlink" x="0px" y="0px"
	 viewBox="0 0 97 100.1" enable-background="new 0 0 97 100.1" xml:space="preserve">
<path fill="none" stroke="#FFFFFF" stroke-width="2" stroke-miterlimit="10" d="M81.2,97.4H16.1c-7.1,0-13-5.8-13-13V61.3
	c0-7.1,5.9-13,13-13h65.1c7.2,0,13,5.9,13,13v23.1C94.2,91.6,88.4,97.4,81.2,97.4z"/>
<circle fill="none" stroke="#FFFFFF" stroke-width="2" stroke-miterlimit="10" cx="27.5" cy="73" r="14.5"/>
<rect x="57.8" y="59.8" fill="none" stroke="#FFFFFF" stroke-width="2" stroke-miterlimit="10" width="25" height="7.4"/>
<line fill="none" stroke="#FFFFFF" stroke-width="2" stroke-miterlimit="10" x1="58.1" y1="71.9" x2="58.1" y2="86.6"/>
<line fill="none" stroke="#FFFFFF" stroke-width="2" stroke-miterlimit="10" x1="64.2" y1="71.9" x2="64.2" y2="86.6"/>
<line fill="none" stroke="#FFFFFF" stroke-width="2" stroke-miterlimit="10" x1="70.3" y1="71.9" x2="70.3" y2="86.6"/>
<line fill="none" stroke="#FFFFFF" stroke-width="2" stroke-miterlimit="10" x1="76.3" y1="71.9" x2="76.3" y2="86.6"/>
<line fill="none" stroke="#FFFFFF" stroke-width="2" stroke-miterlimit="10" x1="82.2" y1="71.9" x2="82.2" y2="86.6"/>
<circle fill="none" stroke="#FFFFFF" stroke-width="2" stroke-miterlimit="10" cx="27.6" cy="72.8" r="9.6"/>
<line fill="none" stroke="#FFFFFF" stroke-width="2" stroke-linecap="round" stroke-miterlimit="10" x1="3.1" y1="2.1" x2="27.6" y2="48.3"/>
</svg>
