<?xml version="1.0" encoding="utf-8"?>
<!-- Generator: Adobe Illustrator 18.1.1, SVG Export Plug-In . SVG Version: 6.00 Build 0)  -->
<svg version="1.1" id="Layer_1" xmlns="http://www.w3.org/2000/svg" xmlns:xlink="http://www.w3.org/1999/xlink" x="0px" y="0px"
	 viewBox="0 0 130.2 170.4" enable-background="new 0 0 130.2 170.4" xml:space="preserve">
<g>
	<path fill="#FFFFFF" d="M11.5,159.3l3-3.6c2.1,1.7,4.2,2.8,6.9,2.8c2.1,0,3.3-0.8,3.3-2.2v-0.1c0-1.3-0.8-2-4.6-3
		c-4.6-1.2-7.6-2.5-7.6-7.2v-0.1c0-4.2,3.4-7.1,8.1-7.1c3.4,0,6.2,1.1,8.5,3l-2.6,3.9c-2-1.4-4-2.3-6-2.3c-1.9,0-3,0.9-3,2v0.1
		c0,1.5,1,2,5,3.1c4.7,1.2,7.3,2.9,7.3,7v0.1c0,4.6-3.5,7.3-8.5,7.3C17.7,163.1,14.2,161.8,11.5,159.3z"/>
	<path fill="#FFFFFF" d="M72.1,157.7V149h-2.2v-4.1h2.2v-4.7h4.6v4.7h4.6v4.1h-4.6v8c0,1.5,0.9,1.8,2,1.8c0.9,0,1.8-0.3,2.5-0.7v3.9
		c-1.1,0.6-2.3,1-4,1C74.2,163,72.1,161.8,72.1,157.7z"/>
	<rect x="83.1" y="145.1" fill="#FFFFFF" width="4.5" height="17.7"/>
	<path fill="#FFFFFF" d="M96.1,145v-0.9c0-1.3,1-1.9,2.2-1.9c0.9,0,1.6,0.2,2.3,0.4v-4c-0.9-0.3-2-0.5-3.6-0.5c-1.8,0-3,0.5-3.9,1.4
		c-0.9,0.9-1.5,2.4-1.5,4.3v1.1h-2.2v4h2.1v13.7h4.7V149h3.7l5.5,13.5c-0.5,1.1-1.2,1.6-2.1,1.6c-0.7,0-1.7-0.4-2.3-0.8l-1.7,3.5
		c1.3,0.8,3,1.2,4.8,1.2c3.2,0,4.7-2.7,5.2-4.1l7.3-18.9l-4.7,0l-4.3,12L103,145h-2.4L96.1,145z"/>
	<circle fill="#FFFFFF" cx="85.3" cy="140" r="2.8"/>
	<g>
		<path fill="#FFFFFF" d="M117,147.8L117,147.8c0-1.5,1.2-2.8,2.8-2.8c1.6,0,2.8,1.3,2.8,2.8v0c0,1.5-1.2,2.8-2.8,2.8
			C118.2,150.5,117,149.3,117,147.8z M122.3,147.7L122.3,147.7c0-1.4-1.1-2.5-2.5-2.5c-1.4,0-2.5,1.1-2.5,2.5v0
			c0,1.4,1.1,2.5,2.5,2.5C121.2,150.2,122.3,149.1,122.3,147.7z M118.7,146.2h1.3c0.4,0,0.7,0.1,0.9,0.3c0.2,0.2,0.2,0.4,0.2,0.7v0
			c0,0.5-0.3,0.8-0.6,0.9l0.7,1.1h-0.8l-0.6-1h-0.5v1h-0.7V146.2z M120,147.6c0.3,0,0.5-0.2,0.5-0.4v0c0-0.3-0.2-0.4-0.5-0.4h-0.6
			v0.9H120z"/>
	</g>
	<path fill="#FFFFFF" d="M60.3,144.6c-5.4,0-9.5,4.1-9.5,9.3v0.1c0,5.1,4.1,9.2,9.4,9.2c5.4,0,9.4-4.1,9.4-9.3v-0.1
		C69.6,148.7,65.7,144.6,60.3,144.6z M60.2,159.2c-2.7,0-4.9-2.4-4.9-5.3c0-2.9,2.2-5.3,4.9-5.3c2.7,0,4.9,2.4,4.9,5.3
		C65.2,156.8,63,159.2,60.2,159.2z"/>
	<path fill="#FFFFFF" d="M41.6,144.6c-2.9,0-4.7,1-5.9,2.7V145h-4.5v23h4.6v-7.5c1.2,1.4,2.8,2.6,5.4,2.6c4.1,0,8.3-3.2,8.3-9.1
		v-0.1C49.5,148,45.6,144.6,41.6,144.6z M40.3,159.1c-2.6,0-4.7-2.3-4.7-5.2s2.1-5.2,4.7-5.2c2.6,0,4.7,2.3,4.7,5.2
		S42.9,159.1,40.3,159.1z"/>
</g>
<g>
	<g>
		<defs>
			<rect id="SVGID_1_" x="0" y="0" width="130.2" height="130.2"/>
		</defs>
		<clipPath id="SVGID_2_">
			<use xlink:href="#SVGID_1_"  overflow="visible"/>
		</clipPath>
		<path clip-path="url(#SVGID_2_)" fill-rule="evenodd" clip-rule="evenodd" fill="#53BA5E" d="M130.2,65.1
			c0,35.9-29.1,65.1-65.1,65.1S0,101,0,65.1S29.1,0,65.1,0S130.2,29.1,130.2,65.1L130.2,65.1z"/>
	</g>
	<path fill-rule="evenodd" clip-rule="evenodd" d="M112.7,52.3c0,4.7-5,7.6-9.1,5.3c-2.8-1.6-5.7-3-8.7-4.2
		c-5.9-2.4-12.1-4-18.4-5.1c-4.4-0.8-8.8-1.3-13.2-1.6c-4.6-0.3-9.2-0.3-13.9-0.1c-5.3,0.3-10.6,0.9-15.7,2
		c-1.9,0.4-3.8,0.9-5.7,1.4c-1.2,0.3-2.3,0.3-3.5,0c-2.5-0.7-4.3-3-4.4-5.7c-0.1-2.6,1.5-5,4-5.8c1.8-0.6,3.7-1.1,5.6-1.5
		c4.7-1.1,9.4-1.7,14.1-2.2c5.1-0.5,10.1-0.6,15.2-0.5c12.5,0.4,24.7,2.2,36.5,6.3c4.8,1.7,9.5,3.7,13.9,6.3c1.6,0.9,2.6,2.2,3,4
		C112.6,51.5,112.6,51.9,112.7,52.3L112.7,52.3z"/>
	<path fill-rule="evenodd" clip-rule="evenodd" d="M53.7,66.9c-7.4,0-15.1,1-22.5,3.2c-1.2,0.4-2.4,0.4-3.6-0.1
		c-1.9-0.8-3.2-2.7-3.1-4.8c0.1-2.1,1.4-4,3.4-4.6c2.1-0.6,4.2-1.2,6.4-1.7c5.3-1.2,10.6-1.8,16-2c11.6-0.4,23,1.1,34,4.6
		c5.6,1.8,10.9,4.1,16,7.1c0.3,0.1,0.5,0.3,0.8,0.5c2.6,1.6,3,4.9,1.7,6.9c-1.4,2.4-4.4,3.1-6.9,1.7c-1.4-0.8-2.8-1.6-4.2-2.3
		c-6.6-3.3-13.5-5.5-20.8-6.9C65.3,67.4,59.7,66.9,53.7,66.9L53.7,66.9z"/>
	<path fill-rule="evenodd" clip-rule="evenodd" d="M54.9,77.9c8.6,0.1,16.9,1.2,25.1,4c4.5,1.5,8.8,3.5,12.8,5.9
		c0.4,0.2,0.7,0.4,1,0.7c1.6,1.2,2.1,3.5,1,5.3c-1,1.7-3.2,2.4-5.1,1.6c-0.4-0.2-0.7-0.4-1.1-0.6c-6.9-4.1-14.3-6.6-22.2-7.8
		c-4.8-0.7-9.7-1-14.6-0.8c-6.3,0.2-12.6,1.1-18.8,2.5c-0.6,0.1-1.3,0.3-1.9,0.3c-1.9,0-3.5-1.3-3.9-3.2c-0.4-2,0.6-3.8,2.4-4.5
		c0.4-0.2,0.8-0.2,1.2-0.3c5.1-1.1,10.2-2,15.3-2.4C49.1,78.2,52,78.1,54.9,77.9L54.9,77.9z"/>
</g>
</svg>
