<?xml version="1.0" encoding="utf-8"?>
<!-- Generator: Adobe Illustrator 18.1.1, SVG Export Plug-In . SVG Version: 6.00 Build 0)  -->
<svg version="1.1" id="Layer_1" xmlns="http://www.w3.org/2000/svg" xmlns:xlink="http://www.w3.org/1999/xlink" x="0px" y="0px"
	 viewBox="0 0 42.1 71.2" enable-background="new 0 0 42.1 71.2" xml:space="preserve">
<circle fill="none" stroke="#FFFFFF" stroke-width="2" stroke-miterlimit="10" cx="21" cy="20.7" r="12.2"/>
<path fill="none" stroke="#FFFFFF" stroke-width="2" stroke-miterlimit="10" d="M37.2,58c0,10.2-7,12.3-15.6,12.3S6,68.2,6,58
	s7-24.8,15.6-24.8S37.2,47.7,37.2,58z"/>
<g>
	<path fill="none" stroke="#FFFFFF" stroke-width="2" stroke-linecap="round" stroke-miterlimit="10" d="M1.9,25.8
		c-0.4-1.6-0.6-3.3-0.6-5C1.3,9.9,10.1,1,21,1s19.8,8.8,19.8,19.8c0,1.8-0.2,3.5-0.7,5.1"/>
	<path fill="none" stroke="#FFFFFF" stroke-width="2" stroke-linecap="round" stroke-miterlimit="10" d="M5.1,16.1
		c-0.4,1.9-0.6,3.8-0.5,5.8c0.1,1.3,0.3,2.6,0.7,3.8"/>
	<path fill="none" stroke="#FFFFFF" stroke-width="2" stroke-linecap="round" stroke-miterlimit="10" d="M37.2,16.2
		c0.4,1.9,0.6,3.8,0.5,5.8c-0.1,1.3-0.3,2.6-0.7,3.8"/>
</g>
</svg>
