<?xml version="1.0" encoding="utf-8"?>
<!-- Generator: Adobe Illustrator 18.1.1, SVG Export Plug-In . SVG Version: 6.00 Build 0)  -->
<svg version="1.1" xmlns="http://www.w3.org/2000/svg" xmlns:xlink="http://www.w3.org/1999/xlink" x="0px" y="0px"
	 viewBox="0 0 239.5 140" enable-background="new 0 0 239.5 140" xml:space="preserve">
<g id="Layer_2">
</g>
<g id="Layer_1">
	<path fill="#E44E95" d="M78.6,140H54.6c-2.2,0-3.9-1.7-3.9-3.9l0,0c0-2.2,1.7-3.9,3.9-3.9h24.1c2.2,0,3.9,1.7,3.9,3.9l0,0
		C82.5,138.3,80.8,140,78.6,140z"/>
	<rect x="205.6" y="132.2" fill="#FCAE65" width="28.9" height="7.8"/>
	<path fill="#FCAE65" d="M235.6,140h-24.1c-2.2,0-3.9-1.7-3.9-3.9l0,0c0-2.2,1.7-3.9,3.9-3.9h24.1c2.2,0,3.9,1.7,3.9,3.9l0,0
		C239.5,138.3,237.7,140,235.6,140z"/>
	<rect x="114" y="132.2" fill="#718CD9" width="31.9" height="7.8"/>
	<rect x="145.8" y="132.2" fill="#4FC1A0" width="31.9" height="7.8"/>
	<rect x="177.7" y="132.2" fill="#9CD27C" width="31.9" height="7.8"/>
	<g>
		<path fill="#E44E95" d="M0,5.4L0,5.4v36.7c0,2.3,1.9,4.2,4.2,4.2c2.3,0,4.2-1.9,4.2-4.2v-11H4.2c-2.3,0-4.2-1.9-4.2-4.2
			c0-2.3,1.9-4.2,4.2-4.2h4.2v-13H4.2C1.9,9.6,0,7.7,0,5.4"/>
		<path fill="#9CD27C" d="M20.8,22.7H8.4v8.4h10.3l-1.2-1.6c-0.4-0.5-0.7-1.1-0.8-1.7c0,0,0,0,0,0c0,0,0,0,0,0c0,0,0,0,0,0
			c0,0,0,0,0,0c-0.1-0.3-0.1-0.7-0.1-1c0-0.7,0.2-1.3,0.5-1.8c0,0,0,0,0,0c0,0,0,0,0,0c0.2-0.4,0.5-0.9,0.9-1.2
			c0.5-0.4,1-0.7,1.6-0.9c0,0,0,0,0,0c0,0,0,0,0,0c0,0,0,0,0,0c0,0,0,0,0,0c0,0,0,0,0,0c0,0,0,0,0,0C20.1,22.7,20.4,22.7,20.8,22.7"
			/>
		<path fill="#949E5C" d="M8.4,22.7H4.2c-2.3,0-4.2,1.9-4.2,4.2c0,2.3,1.9,4.2,4.2,4.2h4.2V22.7"/>
		<path fill="#F79B63" d="M21.9,1.2H4.2C1.9,1.2,0,3.1,0,5.4l0,0c0-2.3,1.9-4.2,4.2-4.2c2.3,0,4.2,1.9,4.2,4.2v4.2h13.5l0,0l0,0
			c-2.3,0-4.2-1.9-4.2-4.2C17.7,3.1,19.6,1.2,21.9,1.2"/>
		<path fill="#F47945" d="M4.2,1.2C1.9,1.2,0,3.1,0,5.4c0,2.3,1.9,4.2,4.2,4.2h4.2V5.4C8.4,3.1,6.6,1.2,4.2,1.2"/>
		<path fill="#4FC1A0" d="M20.8,22.7C20.8,22.7,20.8,22.7,20.8,22.7L20.8,22.7L20.8,22.7L20.8,22.7C20.9,22.7,20.8,22.7,20.8,22.7"
			/>
		<path fill="#31B378" d="M16.7,27.8C16.7,27.8,16.7,27.8,16.7,27.8C16.7,27.8,16.7,27.8,16.7,27.8 M16.7,27.8
			C16.7,27.8,16.7,27.8,16.7,27.8C16.7,27.8,16.7,27.8,16.7,27.8 M16.6,26.8c0,0.3,0,0.7,0.1,1c-0.1-0.3-0.1-0.6-0.1-0.9
			C16.6,26.8,16.6,26.8,16.6,26.8 M17.1,24.9C17.1,24.9,17.1,24.9,17.1,24.9C17.1,24.9,17.1,24.9,17.1,24.9 M18,23.7
			c-0.4,0.4-0.7,0.8-0.9,1.2C17.3,24.5,17.6,24.1,18,23.7 M19.7,22.8C19.7,22.8,19.7,22.8,19.7,22.8C19.7,22.8,19.7,22.8,19.7,22.8
			 M19.7,22.8C19.7,22.8,19.7,22.8,19.7,22.8C19.7,22.8,19.7,22.8,19.7,22.8 M19.7,22.8C19.7,22.8,19.7,22.8,19.7,22.8
			C19.7,22.8,19.7,22.8,19.7,22.8 M20.8,22.7L20.8,22.7c-0.4,0-0.8,0.1-1.1,0.1C20.1,22.7,20.5,22.7,20.8,22.7"/>
		<path fill="#4FC1A0" d="M28.3,29.6c-1.9,0.9-4.1,1.4-6.4,1.4h-1.1l0,0h-2.1l10.5,13.6c0.8,1.1,2.1,1.6,3.3,1.6
			c0.9,0,1.8-0.3,2.6-0.9c1.8-1.4,2.2-4.1,0.8-5.9L28.3,29.6"/>
		<path fill="#31B378" d="M17.5,29.5l1.2,1.6h2.1l0,0C19.5,31.1,18.3,30.5,17.5,29.5"/>
		<path fill="#718CD9" d="M21.9,1.2L21.9,1.2c2.3,0,4.2,1.9,4.2,4.2c0,2.3-1.9,4.2-4.2,4.2c3.6,0,6.5,2.9,6.5,6.5
			c0,3.6-2.9,6.5-6.5,6.5h-1c0.1,0,0.2,0,0.2,0c0.5,0,1,0.2,1.5,0.4c0,0,0,0,0,0c0,0,0,0,0,0c0.6,0.3,1.1,0.6,1.5,1.1
			c0,0,0.1,0.1,0.1,0.1l4.1,5.3c5-2.4,8.5-7.6,8.5-13.5C36.8,7.9,30.1,1.2,21.9,1.2"/>
		<path fill="#547FB3" d="M24.1,24.2c0,0,0.1,0.1,0.1,0.1l0,0C24.2,24.3,24.1,24.2,24.1,24.2 M22.6,23C22.6,23,22.6,23,22.6,23
			C22.6,23,22.6,23,22.6,23 M21.1,22.7c0.5,0,1,0.2,1.5,0.4C22.1,22.8,21.6,22.7,21.1,22.7"/>
		<path fill="#7074AB" d="M21.9,1.2L21.9,1.2c-2.3,0-4.2,1.9-4.2,4.2c0,2.3,1.9,4.2,4.2,4.2l0,0c2.3,0,4.2-1.9,4.2-4.2
			C26.1,3.1,24.2,1.2,21.9,1.2"/>
		<path fill="#547FB3" d="M16.7,27.8c0.1,0.6,0.4,1.2,0.8,1.7l0,0C17.1,28.9,16.8,28.4,16.7,27.8 M16.7,27.8
			C16.7,27.8,16.7,27.8,16.7,27.8C16.7,27.8,16.7,27.8,16.7,27.8 M16.7,27.7C16.7,27.8,16.7,27.8,16.7,27.7
			C16.7,27.8,16.7,27.8,16.7,27.7 M17.1,24.9c-0.3,0.5-0.5,1.2-0.5,1.8C16.6,26.1,16.8,25.5,17.1,24.9 M17.1,24.9
			C17.1,24.9,17.1,24.9,17.1,24.9C17.1,24.9,17.1,24.9,17.1,24.9 M19.7,22.8c-0.6,0.2-1.2,0.5-1.6,0.9c0.1-0.1,0.1-0.1,0.2-0.2
			C18.7,23.2,19.2,23,19.7,22.8 M19.7,22.8C19.7,22.8,19.7,22.8,19.7,22.8C19.7,22.8,19.7,22.8,19.7,22.8 M19.7,22.8
			C19.7,22.8,19.7,22.8,19.7,22.8C19.7,22.8,19.7,22.8,19.7,22.8 M19.7,22.8C19.7,22.8,19.7,22.8,19.7,22.8
			C19.7,22.8,19.7,22.8,19.7,22.8"/>
		<path fill="#3D79BD" d="M24.2,24.3c0.5,0.7,0.9,1.6,0.9,2.6c0,2.3-1.9,4.2-4.2,4.2h1.1c2.3,0,4.5-0.5,6.4-1.4L24.2,24.3 M22.6,23
			c0.6,0.3,1.1,0.7,1.5,1.1C23.7,23.7,23.2,23.3,22.6,23 M22.6,23C22.6,23,22.6,23,22.6,23C22.6,23,22.6,23,22.6,23 M20.9,22.7
			L20.9,22.7L20.9,22.7c0.1,0,0.2,0,0.2,0C21,22.7,21,22.7,20.9,22.7"/>
		<path fill="#3476B1" d="M20.8,22.7L20.8,22.7c-0.4,0-0.8,0.1-1.1,0.1c0,0,0,0,0,0c0,0,0,0,0,0c0,0,0,0,0,0c0,0,0,0,0,0
			c0,0,0,0,0,0c0,0,0,0,0,0c-0.5,0.1-1,0.4-1.4,0.7c-0.1,0.1-0.2,0.1-0.2,0.2c-0.4,0.3-0.7,0.7-0.9,1.2c0,0,0,0,0,0c0,0,0,0,0,0
			c-0.3,0.6-0.5,1.2-0.5,1.8c0,0,0,0.1,0,0.1c0,0.3,0,0.6,0.1,0.9c0,0,0,0,0,0c0,0,0,0,0,0c0,0,0,0,0,0c0,0,0,0,0,0
			c0.1,0.6,0.4,1.2,0.8,1.7l0,0c0.8,1,2,1.6,3.3,1.6l0,0c2.3,0,4.2-1.9,4.2-4.2c0-1-0.3-1.8-0.9-2.6l0,0c0,0-0.1-0.1-0.1-0.1
			c-0.4-0.5-0.9-0.9-1.5-1.1c0,0,0,0,0,0c0,0,0,0,0,0c-0.5-0.2-1-0.3-1.5-0.4C21,22.7,20.9,22.7,20.8,22.7"/>
	</g>
	<g>
		<path fill="#E44E95" d="M212.9,0C199.7,0,189,10.7,189,23.9c0-2.3,1.9-4.2,4.2-4.2c2.3,0,4.2,1.9,4.2,4.2l0,0
			c0-8.5,6.9-15.5,15.5-15.5l0,0l0,0c-2.3,0-4.2-1.9-4.2-4.2C208.7,1.9,210.6,0,212.9,0"/>
		<path fill="#718CD9" d="M197.4,23.9L197.4,23.9c0,2.3-1.9,4.2-4.2,4.2c-2.3,0-4.2-1.9-4.2-4.2c0,13.2,10.7,23.9,23.9,23.9l0,0l0,0
			c-2.3,0-4.2-1.9-4.2-4.2c0-2.3,1.9-4.2,4.2-4.2C204.4,39.4,197.4,32.4,197.4,23.9"/>
		<path fill="#6958BA" d="M193.2,19.7c-2.3,0-4.2,1.9-4.2,4.2l0,0l0,0c0,2.3,1.9,4.2,4.2,4.2c2.3,0,4.2-1.9,4.2-4.2l0,0l0,0
			C197.4,21.6,195.5,19.7,193.2,19.7"/>
		<path fill="#FCAE65" d="M236.8,23.9c0,2.3-1.9,4.2-4.2,4.2s-4.2-1.9-4.2-4.2l0,0c0,8.5-6.9,15.5-15.5,15.5l0,0l0,0
			c2.3,0,4.2,1.9,4.2,4.2c0,2.3-1.9,4.2-4.2,4.2C226.1,47.8,236.8,37.1,236.8,23.9L236.8,23.9"/>
		<path fill="#D28B5A" d="M212.9,39.4c-2.3,0-4.2,1.9-4.2,4.2c0,2.3,1.9,4.2,4.2,4.2l0,0c2.3,0,4.2-1.9,4.2-4.2
			C217.1,41.3,215.2,39.4,212.9,39.4L212.9,39.4"/>
		<path fill="#4FC1A0" d="M212.9,0L212.9,0L212.9,0c2.3,0,4.2,1.9,4.2,4.2c0,2.3-1.9,4.2-4.2,4.2c8.5,0,15.5,6.9,15.5,15.5l0,0
			c0-2.3,1.9-4.2,4.2-4.2s4.2,1.9,4.2,4.2l0,0C236.8,10.7,226.1,0,212.9,0"/>
		<path fill="#468D81" d="M212.9,0L212.9,0c-2.3,0-4.2,1.9-4.2,4.2c0,2.3,1.9,4.2,4.2,4.2l0,0c2.3,0,4.2-1.9,4.2-4.2
			C217.1,1.9,215.2,0,212.9,0"/>
		<path fill="#4EA972" d="M232.6,19.7c-2.3,0-4.2,1.9-4.2,4.2c0,2.3,1.9,4.2,4.2,4.2s4.2-1.9,4.2-4.2
			C236.8,21.6,234.9,19.7,232.6,19.7"/>
	</g>
	<g>
		<path fill="#B552C0" d="M73.6,99.8c-0.6,0.3-1.2,0.4-1.8,0.4c0,0,0,0,0,0C72.4,100.2,73,100,73.6,99.8 M74.7,99
			C74.7,99,74.7,99,74.7,99C74.7,99,74.7,99,74.7,99 M68.8,98.9c0.3,0.3,0.7,0.6,1.1,0.8c-0.2-0.1-0.5-0.3-0.7-0.4
			C69.1,99.2,69,99.1,68.8,98.9 M75.2,98.4L75.2,98.4c-0.2,0.3-0.3,0.4-0.5,0.6C74.9,98.8,75.1,98.6,75.2,98.4 M49.8,71.7
			c0,0,0,0.1,0,0.1v0C49.8,71.7,49.8,71.7,49.8,71.7 M57.4,69.3c0.5,0.7,0.8,1.5,0.8,2.5v12.9l10.1,13.7c-1-1.5-1-3.5,0.1-5l3.4-4.5
			L57.4,69.3 M57.3,69.1C57.3,69.1,57.3,69.1,57.3,69.1C57.3,69.1,57.3,69.1,57.3,69.1 M51.4,68.5c-0.5,0.4-0.9,0.9-1.1,1.4
			C50.5,69.3,50.9,68.8,51.4,68.5 M55.9,68c0.6,0.3,1,0.7,1.4,1.1C56.9,68.6,56.4,68.2,55.9,68 M52.5,67.8
			C52.5,67.8,52.5,67.8,52.5,67.8C52.5,67.8,52.5,67.8,52.5,67.8 M52.5,67.8C52.5,67.8,52.5,67.8,52.5,67.8
			C52.5,67.8,52.5,67.8,52.5,67.8 M54,67.6c-0.5,0-1,0.1-1.5,0.3C53,67.7,53.5,67.6,54,67.6c0.1,0,0.2,0,0.3,0
			C54.2,67.6,54.1,67.6,54,67.6"/>
		<path fill="#718CD9" d="M69.9,99.7c0.6,0.3,1.2,0.4,1.9,0.4c0,0,0,0,0,0C71.2,100.2,70.5,100,69.9,99.7 M74.7,99
			c-0.1,0.1-0.3,0.2-0.4,0.3c-0.2,0.2-0.5,0.3-0.7,0.4C74,99.6,74.4,99.3,74.7,99 M74.7,99C74.7,99,74.7,99,74.7,99
			C74.7,99,74.7,99,74.7,99 M68.4,98.4c0.1,0.2,0.3,0.4,0.5,0.6C68.7,98.8,68.5,98.6,68.4,98.4L68.4,98.4 M94.4,71.4
			c0,0.1,0,0.2,0,0.3v0.1C94.4,71.7,94.4,71.6,94.4,71.4 M86.8,69.3l-15,19.6l3.3,4.5c1.1,1.5,1.1,3.5,0,5L86,84.3V71.8
			C86,70.8,86.3,70,86.8,69.3 M93,68.6c0.5,0.4,0.8,0.9,1.1,1.4C93.8,69.4,93.4,69,93,68.6 M88.5,67.9c-0.5,0.2-1,0.6-1.4,1
			C87.4,68.5,87.9,68.2,88.5,67.9 M91.8,67.8C91.8,67.8,91.8,67.8,91.8,67.8C91.8,67.8,91.8,67.8,91.8,67.8 M91.7,67.8
			C91.7,67.8,91.7,67.8,91.7,67.8C91.7,67.8,91.7,67.8,91.7,67.8 M90.2,67.6c-0.1,0-0.2,0-0.4,0C90,67.6,90.1,67.6,90.2,67.6
			c0.5,0,1,0.1,1.5,0.3C91.2,67.6,90.7,67.6,90.2,67.6"/>
		<path fill="#5B59C7" d="M71.9,88.9l-3.4,4.5c-1.1,1.5-1.1,3.5-0.1,5l0.1,0.1c0.1,0.2,0.3,0.3,0.4,0.5c0.1,0.1,0.3,0.3,0.4,0.4
			c0.2,0.2,0.4,0.3,0.7,0.4c0.6,0.3,1.2,0.4,1.9,0.4c0.6,0,1.2-0.1,1.8-0.4c0.2-0.1,0.5-0.3,0.7-0.4c0.1-0.1,0.3-0.2,0.4-0.3
			c0,0,0,0,0,0c0,0,0,0,0,0c0.2-0.2,0.3-0.3,0.4-0.5l0.1-0.1c1-1.4,1.1-3.5,0-5L71.9,88.9"/>
		<path fill="#4FC1A0" d="M94.4,71.8c0,0.9-0.3,1.7-0.9,2.5L86,84.3v24.2c0,2.3,1.9,4.2,4.2,4.2c2.3,0,4.2-1.9,4.2-4.2V71.8 M94,70
			c0.2,0.5,0.3,1,0.4,1.5C94.4,70.9,94.3,70.4,94,70 M87.1,69c-0.1,0.1-0.2,0.2-0.2,0.3l0,0C86.9,69.1,87,69.1,87.1,69 M91.8,67.8
			c0.4,0.1,0.7,0.3,1,0.6c0.1,0,0.1,0.1,0.2,0.2C92.6,68.3,92.2,68,91.8,67.8 M91.7,67.8C91.7,67.8,91.8,67.8,91.7,67.8
			C91.8,67.8,91.7,67.8,91.7,67.8 M91.7,67.8C91.7,67.8,91.7,67.8,91.7,67.8C91.7,67.8,91.7,67.8,91.7,67.8 M89.9,67.6
			c-0.5,0-1,0.2-1.4,0.4C88.9,67.7,89.4,67.6,89.9,67.6"/>
		<path fill="#259F95" d="M90.2,67.6c-0.1,0-0.2,0-0.4,0c-0.5,0-1,0.2-1.4,0.4c-0.5,0.2-1,0.6-1.4,1c-0.1,0.1-0.1,0.2-0.2,0.2l0,0
			C86.3,70,86,70.8,86,71.8v12.5l7.6-9.9c0.6-0.7,0.9-1.6,0.9-2.5v-0.1c0-0.1,0-0.2,0-0.3c0-0.5-0.2-1-0.4-1.5
			c-0.3-0.5-0.6-1-1.1-1.4c-0.1-0.1-0.1-0.1-0.2-0.2c-0.3-0.2-0.7-0.4-1-0.6c0,0,0,0,0,0c0,0,0,0,0,0c0,0,0,0,0,0c0,0,0,0,0,0
			C91.3,67.6,90.8,67.6,90.2,67.6"/>
		<path fill="#E44E95" d="M49.8,71.8v36.7c0,2.3,1.9,4.2,4.2,4.2c2.3,0,4.2-1.9,4.2-4.2V84.6l-7.6-10.4
			C50.1,73.5,49.8,72.7,49.8,71.8 M50.3,69.8c-0.3,0.5-0.4,1.2-0.5,1.8C49.8,71,50,70.4,50.3,69.8 M57.3,69.1c0,0,0.1,0.1,0.1,0.2
			l0,0C57.4,69.2,57.4,69.2,57.3,69.1 M57.3,69.1C57.3,69.1,57.3,69.1,57.3,69.1C57.3,69.1,57.3,69.1,57.3,69.1 M52.5,67.8
			c-0.4,0.2-0.8,0.4-1.1,0.6c0,0,0.1-0.1,0.1-0.1C51.8,68.2,52.1,68,52.5,67.8 M52.5,67.8C52.5,67.8,52.5,67.8,52.5,67.8
			C52.5,67.8,52.5,67.8,52.5,67.8 M52.5,67.8C52.5,67.8,52.5,67.8,52.5,67.8C52.5,67.8,52.5,67.8,52.5,67.8 M54.4,67.6
			c0.5,0,1,0.2,1.5,0.4C55.4,67.7,54.9,67.6,54.4,67.6"/>
		<path fill="#CF1B82" d="M54,67.6c-0.5,0-1,0.1-1.5,0.3c0,0,0,0,0,0c0,0,0,0,0,0c0,0,0,0,0,0c0,0,0,0,0,0c-0.3,0.1-0.6,0.3-0.9,0.5
			c0,0-0.1,0.1-0.1,0.1c-0.5,0.4-0.9,0.8-1.1,1.4c-0.3,0.6-0.4,1.2-0.5,1.8c0,0,0,0.1,0,0.1v0c0,0.9,0.3,1.7,0.8,2.5l7.6,10.4V71.8
			c0-0.9-0.3-1.8-0.8-2.5l0,0c0-0.1-0.1-0.1-0.1-0.2c0,0,0,0,0,0c0,0,0,0,0,0c-0.4-0.5-0.9-0.9-1.4-1.1c-0.5-0.2-1-0.4-1.5-0.4
			C54.2,67.6,54.1,67.6,54,67.6"/>
	</g>
	<path fill="#E44E95" d="M170.1,1c-2.3,0-4.2,1.9-4.2,4.2V42c0,2.3,1.9,4.2,4.2,4.2c2.3,0,4.2-1.9,4.2-4.2V5.3
		C174.3,2.9,172.4,1,170.1,1"/>
	<g>
		<path fill="#4FC1A0" d="M109,5.3L109,5.3v36.7c0,2.3,1.9,4.2,4.2,4.2l0,0c-2.3,0-4.2-1.9-4.2-4.2c0-2.3,1.9-4.2,4.2-4.2h4.2V9.6
			h-4.2C110.9,9.6,109,7.7,109,5.3"/>
		<path fill="#718CD9" d="M129.7,1.1h-16.5c-2.3,0-4.2,1.9-4.2,4.2l0,0c0-2.3,1.9-4.2,4.2-4.2c2.3,0,4.2,1.9,4.2,4.2v4.2h12.3l0,0
			c-2.3,0-4.2-1.9-4.2-4.2C125.5,3,127.4,1.1,129.7,1.1 M129.9,1.1h-0.2c0.1,0,0.2,0,0.3,0C129.9,1.1,129.9,1.1,129.9,1.1"/>
		<path fill="#3D79BD" d="M113.2,1.1c-2.3,0-4.2,1.9-4.2,4.2c0,2.3,1.9,4.2,4.2,4.2h4.2V5.3C117.4,3,115.6,1.1,113.2,1.1"/>
		<path fill="#9CD27C" d="M129.7,37.8h-12.3v4.2c0,2.3-1.9,4.2-4.2,4.2h16.6c0,0,0.1,0,0.1,0c-0.1,0-0.2,0-0.3,0
			c-2.3,0-4.2-1.9-4.2-4.2C125.5,39.7,127.4,37.8,129.7,37.8"/>
		<path fill="#68C060" d="M117.4,37.8h-4.2c-2.3,0-4.2,1.9-4.2,4.2c0,2.3,1.9,4.2,4.2,4.2l0,0c2.3,0,4.2-1.9,4.2-4.2V37.8"/>
		<path fill="#F79B63" d="M130,1.1c2.3,0.1,4.1,1.9,4.1,4.2c0,2.3-1.9,4.2-4.2,4.2h-0.2c7.5,0,12.9,5.9,12.9,14.1l0,0
			c0-2.3,1.9-4.2,4.2-4.2c2.3,0,4.2,1.9,4.2,4.2C151,10.9,142,1.3,130,1.1"/>
		<path fill="#6D5554" d="M129.7,1.1L129.7,1.1c-2.3,0-4.2,1.9-4.2,4.2c0,2.3,1.9,4.2,4.2,4.2l0,0h0.2c2.3,0,4.2-1.9,4.2-4.2
			c0-2.3-1.8-4.2-4.1-4.2C129.9,1.1,129.8,1.1,129.7,1.1"/>
		<path fill="#B552C0" d="M151,23.7c0,2.3-1.9,4.2-4.2,4.2c-2.3,0-4.2-1.9-4.2-4.2l0,0c0,8.2-5.4,14.1-12.9,14.1l0,0h0.1
			c2.3,0,4.2,1.9,4.2,4.2c0,2.3-1.8,4.2-4.1,4.2C142,46.1,151,36.5,151,23.7"/>
		<path fill="#974499" d="M129.8,37.8h-0.1c-2.3,0-4.2,1.9-4.2,4.2c0,2.3,1.9,4.2,4.2,4.2c0.1,0,0.2,0,0.3,0
			c2.3-0.1,4.1-1.9,4.1-4.2C134.1,39.7,132.2,37.8,129.8,37.8"/>
		<path fill="#B23492" d="M146.8,19.5c-2.3,0-4.2,1.9-4.2,4.2l0,0l0,0c0,2.3,1.9,4.2,4.2,4.2c2.3,0,4.2-1.9,4.2-4.2l0,0l0,0
			C151,21.4,149.1,19.5,146.8,19.5"/>
	</g>
	<g>
		<path fill="#4FC1A0" d="M224.1,76.6h-8.4v32.5c0,2.3,1.9,4.2,4.2,4.2c2.3,0,4.2-1.9,4.2-4.2V76.6"/>
		<path fill="#B552C0" d="M235.3,68.2h-30.8c-2.3,0-4.2,1.9-4.2,4.2c0,2.3,1.9,4.2,4.2,4.2h11.2v-4.2c0-2.3,1.9-4.2,4.2-4.2
			c2.3,0,4.2,1.9,4.2,4.2v4.2h11.2c2.3,0,4.2-1.9,4.2-4.2C239.5,70.1,237.6,68.2,235.3,68.2"/>
		<path fill="#B13B78" d="M219.9,68.2c-2.3,0-4.2,1.9-4.2,4.2v4.2h8.4v-4.2C224.1,70.1,222.2,68.2,219.9,68.2"/>
	</g>
	<g>
		<path fill="#4FC1A0" d="M175,65.1c-4.9,0-8.7,1.2-11.3,3.6c-2.6,2.4-4,5.8-4.1,10.1c-0.1,3,0.9,7.1,5.8,10.3
			c2.3,1.5,5.2,2.6,9.1,3.4c0,0,0,0,0.1,0c0,0,0,0,0,0c-2.3-0.5-3.7-2.7-3.3-5c0.4-2,2.2-3.4,4.1-3.4c0.3,0,0.6,0,0.9,0.1
			c0,0,0,0,0,0c0,0,0,0,0,0c-8.3-1.8-8.2-4.4-8.2-5.2c0.1-2.8,1-3.7,1.4-4c1-1,3-1.4,5.6-1.4c0.6,0,1.1,0,1.7,0.1
			c-2.3-0.2-4.1-2.2-3.9-4.5c0.2-2.2,2-3.9,4.2-3.9c0.1,0,0.2,0,0.3,0C176.5,65.1,175.7,65.1,175,65.1"/>
		<path fill="#E44E95" d="M177.3,65.2L177.3,65.2c2.3,0.2,4.1,2.2,3.9,4.5c-0.2,2.2-2,3.9-4.2,3.9c-0.1,0-0.2,0-0.3,0c0,0,0,0,0,0
			c0,0,0,0,0,0c2.2,0.2,5.1,1.1,8.5,2.9c0.6,0.3,1.3,0.5,1.9,0.5c1.5,0,3-0.8,3.8-2.3c1.1-2.1,0.3-4.6-1.8-5.7
			C184.5,66.7,180.7,65.4,177.3,65.2L177.3,65.2"/>
		<path fill="#B13B78" d="M177,65.2c-2.2,0-4,1.7-4.2,3.9c-0.2,2.3,1.6,4.3,3.9,4.5c0,0,0,0,0,0c0.1,0,0.2,0,0.3,0
			c2.2,0,4-1.7,4.2-3.9c0.2-2.3-1.6-4.3-3.9-4.5l0,0C177.2,65.2,177.1,65.2,177,65.2"/>
		<path fill="#9CD27C" d="M176.2,84.2c2.3,0.5,3.7,2.7,3.2,5c-0.4,2-2.2,3.3-4.1,3.3c-0.3,0-0.6,0-0.8-0.1
			c10.5,2.2,10.5,5.1,10.5,6.2l0,0c0-2.3,1.9-4.2,4.2-4.2c2.3,0,4.2,1.9,4.2,4.2c0-2.9-1-7.1-5.7-10.2
			C185,86.7,181.3,85.3,176.2,84.2"/>
		<path fill="#309F4E" d="M175.3,84.1c-2,0-3.7,1.4-4.1,3.4c-0.5,2.3,1,4.5,3.3,5c0,0,0,0,0,0c0.3,0.1,0.6,0.1,0.8,0.1
			c1.9,0,3.7-1.4,4.1-3.3c0.5-2.3-1-4.5-3.2-5c0,0,0,0,0,0C175.9,84.2,175.6,84.1,175.3,84.1"/>
		<path fill="#718CD9" d="M193.4,98.7c0,2.3-1.9,4.2-4.2,4.2c-2.3,0-4.2-1.9-4.2-4.2l0,0c0,0.9-0.2,2.3-1.4,3.4
			c-1.3,1.3-3.6,2-6.5,2c-0.2,0-0.3,0-0.5,0c2.3,0.1,4.2,2,4.1,4.3c-0.1,2.3-1.9,4.1-4.2,4.1l-0.1,0l0,0l0,0c0.2,0,0.5,0,0.7,0
			c6.5,0,10.4-2.4,12.4-4.4C192,105.7,193.4,102.3,193.4,98.7"/>
		<path fill="#547FB3" d="M189.2,94.5c-2.3,0-4.2,1.9-4.2,4.2l0,0l0,0c0,2.3,1.9,4.2,4.2,4.2c2.3,0,4.2-1.9,4.2-4.2l0,0l0,0
			C193.4,96.4,191.5,94.5,189.2,94.5"/>
		<path fill="#FCAE65" d="M162.3,99.2c-1.4,0-2.7,0.7-3.5,1.9c-1.3,1.9-0.7,4.6,1.2,5.8c4,2.6,9.1,5.3,16.3,5.5
			c-2.3-0.1-4.2-2-4.1-4.3c0.1-2.3,1.9-4.1,4.2-4.1c0,0,0.1,0,0.1,0l0,0l0,0c-5.1-0.1-8.8-2.1-11.9-4.1
			C163.9,99.5,163.1,99.2,162.3,99.2"/>
		<path fill="#D28B5A" d="M176.4,104.1c-2.3,0-4.1,1.8-4.2,4.1c-0.1,2.3,1.8,4.3,4.1,4.3l0,0l0.1,0c2.3,0,4.2-1.8,4.2-4.1
			c0.1-2.3-1.8-4.3-4.1-4.3l0,0C176.5,104.1,176.5,104.1,176.4,104.1"/>
	</g>
	<rect x="53.7" y="132.2" fill="#E44E95" width="28.8" height="7.8"/>
	<path fill="#4FC1A0" d="M76.3,3.6c0.6,1.2,0.6,2.5,0,3.8l-3.8,7.4l7.6,15h6.9c2.3,0,4.2,1.9,4.2,4.2c0,2.3-1.9,4.2-4.2,4.2h-2.6
		l3,5.8c0.7,1.5,2.2,2.3,3.8,2.3c0.6,0,1.3-0.1,1.9-0.5c2.1-1.1,2.9-3.6,1.9-5.7L76.3,3.6 M75.6,2.6L75.6,2.6L75.6,2.6 M69.5,2.6
		c-0.3,0.3-0.5,0.6-0.7,1l0,0C69,3.2,69.2,2.9,69.5,2.6 M75.6,2.6L75.6,2.6L75.6,2.6 M69.5,2.6L69.5,2.6L69.5,2.6 M69.5,2.5
		L69.5,2.5L69.5,2.5 M69.5,2.5L69.5,2.5L69.5,2.5 M74.2,1.6l0.2,0.1c0.4,0.2,0.8,0.5,1.2,0.9C75.2,2.2,74.7,1.8,74.2,1.6 M70.9,1.6
		L70.9,1.6L70.9,1.6 M74.2,1.6L74.2,1.6L74.2,1.6 M72.5,1.3c-0.5,0-1.1,0.1-1.6,0.3C71.4,1.4,71.9,1.3,72.5,1.3"/>
	<path fill="#4CA371" d="M72.5,1.3L72.5,1.3c-0.6,0-1.2,0.1-1.7,0.3l0,0l0,0l-0.2,0.1c-0.4,0.2-0.8,0.5-1.1,0.8l0,0l0,0l0,0l0,0l0,0
		l0,0c-0.3,0.3-0.5,0.6-0.7,1l0,0c-0.6,1.2-0.6,2.6,0,3.8l3.8,7.4l3.8-7.4c0.6-1.2,0.6-2.6,0-3.8l0,0c-0.2-0.4-0.4-0.7-0.7-0.9l0,0
		l0,0l0,0l0,0c-0.3-0.3-0.7-0.6-1.2-0.9l-0.2-0.1l0,0l0,0C73.7,1.4,73.1,1.3,72.5,1.3"/>
	<polyline fill="#E44E95" points="80.2,29.8 64.9,29.8 60.6,38.3 84.5,38.3 80.2,29.8 	"/>
	<path fill="#E23067" d="M64.9,29.8H58c-2.3,0-4.2,1.9-4.2,4.2c0,2.3,1.9,4.2,4.2,4.2h2.6L64.9,29.8"/>
	<path fill="#B13B78" d="M87.1,29.8h-6.9l4.3,8.4h2.6c2.3,0,4.2-1.9,4.2-4.2C91.3,31.7,89.4,29.8,87.1,29.8"/>
	<path fill="#F79B63" d="M68.8,3.6L50.1,40.3c-1.1,2.1-0.2,4.6,1.9,5.7c0.6,0.3,1.3,0.5,1.9,0.5c1.5,0,3-0.8,3.8-2.3l3-5.8H58
		c-2.3,0-4.2-1.9-4.2-4.2c0-2.3,1.9-4.2,4.2-4.2h6.9l7.6-15l-3.8-7.4C68.2,6.2,68.2,4.8,68.8,3.6 M75.7,2.6c0.3,0.3,0.5,0.6,0.7,0.9
		l0,0C76.2,3.3,75.9,2.9,75.7,2.6 M75.6,2.6L75.6,2.6L75.6,2.6 M69.5,2.6L69.5,2.6L69.5,2.6 M75.6,2.6L75.6,2.6L75.6,2.6 M69.5,2.6
		L69.5,2.6L69.5,2.6 M69.5,2.5L69.5,2.5L69.5,2.5 M70.9,1.6c-0.5,0.2-0.9,0.5-1.3,0.9c0.3-0.3,0.7-0.6,1.1-0.8L70.9,1.6 M74.2,1.6
		L74.2,1.6L74.2,1.6 M70.9,1.6L70.9,1.6L70.9,1.6 M72.6,1.3L72.6,1.3L72.6,1.3c0.6,0,1.1,0.1,1.7,0.3C73.7,1.4,73.1,1.3,72.6,1.3"/>
	<g>
		<path fill="#E44E95" d="M130.1,69.3c0.6,1.2,0.6,2.5,0,3.8l-3.8,7.4l7.6,15h6.9c2.3,0,4.2,1.9,4.2,4.2c0,2.3-1.9,4.2-4.2,4.2h-2.6
			l3,5.8c0.7,1.5,2.2,2.3,3.8,2.3c0.6,0,1.3-0.1,1.9-0.5c2.1-1.1,2.9-3.6,1.9-5.7L130.1,69.3 M123.3,68.2c-0.3,0.3-0.6,0.7-0.8,1.1
			l0,0C122.8,68.8,123,68.5,123.3,68.2 M123.3,68.2C123.3,68.2,123.3,68.2,123.3,68.2C123.3,68.2,123.3,68.2,123.3,68.2 M123.3,68.1
			C123.3,68.1,123.3,68.1,123.3,68.1C123.3,68.1,123.3,68.1,123.3,68.1 M129.3,68.1C129.3,68.1,129.3,68.1,129.3,68.1
			C129.3,68.1,129.3,68.1,129.3,68.1 M129.3,68.1C129.3,68.1,129.3,68.1,129.3,68.1C129.3,68.1,129.3,68.1,129.3,68.1 M129.2,68.1
			C129.2,68.1,129.2,68.1,129.2,68.1C129.2,68.1,129.2,68.1,129.2,68.1 M128,67.2c0.1,0,0.1,0.1,0.2,0.1c0.4,0.2,0.7,0.4,1,0.7
			C128.9,67.7,128.5,67.4,128,67.2 M128,67.2C128,67.2,128,67.2,128,67.2C128,67.2,128,67.2,128,67.2 M124.7,67.2
			C124.7,67.2,124.7,67.2,124.7,67.2C124.7,67.2,124.7,67.2,124.7,67.2 M126.2,66.9c-0.5,0-1,0.1-1.5,0.3
			C125.2,67,125.7,66.9,126.2,66.9 M126.2,66.9C126.2,66.9,126.2,66.9,126.2,66.9C126.2,66.9,126.2,66.9,126.2,66.9"/>
		<path fill="#BB2C8A" d="M126.3,66.9C126.3,66.9,126.3,66.9,126.3,66.9C126.2,66.9,126.2,66.9,126.3,66.9c-0.1,0-0.1,0-0.1,0
			c-0.5,0-1,0.1-1.5,0.3c0,0,0,0,0,0c0,0,0,0,0,0c-0.1,0-0.2,0.1-0.3,0.1c-0.4,0.2-0.8,0.5-1.1,0.8c0,0,0,0,0,0c0,0,0,0,0,0
			c0,0,0,0,0,0c0,0,0,0,0,0c-0.3,0.3-0.5,0.6-0.7,1l0,0c-0.6,1.2-0.6,2.5,0,3.8l3.8,7.4l3.8-7.4c0.6-1.2,0.6-2.6,0-3.8l0,0
			c-0.2-0.4-0.5-0.8-0.8-1.1c0,0,0,0,0,0c0,0,0,0,0,0c0,0,0,0,0,0c0,0,0,0,0,0c0,0,0,0,0,0c0,0,0,0,0,0c-0.3-0.3-0.6-0.5-1-0.7
			c-0.1,0-0.1-0.1-0.2-0.1c0,0,0,0,0,0c0,0,0,0,0,0C127.5,67,126.9,66.9,126.3,66.9"/>
		<polyline fill="#B552C0" points="134,95.5 118.7,95.5 114.4,103.9 138.2,103.9 134,95.5 		"/>
		<path fill="#8B30B4" d="M118.7,95.5h-6.9c-2.3,0-4.2,1.9-4.2,4.2c0,2.3,1.9,4.2,4.2,4.2h2.6L118.7,95.5"/>
		<path fill="#AC1DA0" d="M140.8,95.5H134l4.3,8.4h2.6c2.3,0,4.2-1.9,4.2-4.2C145.1,97.4,143.2,95.5,140.8,95.5"/>
		<path fill="#718CD9" d="M122.5,69.2l-18.6,36.7c-1.1,2.1-0.2,4.6,1.9,5.7c0.6,0.3,1.3,0.5,1.9,0.5c1.5,0,3-0.8,3.8-2.3l3-5.8h-2.6
			c-2.3,0-4.2-1.9-4.2-4.2c0-2.3,1.9-4.2,4.2-4.2h6.9l7.6-15l-3.8-7.4C121.9,71.8,122,70.4,122.5,69.2 M123.3,68.2
			C123.3,68.2,123.3,68.2,123.3,68.2C123.3,68.2,123.3,68.2,123.3,68.2 M123.3,68.1C123.3,68.1,123.3,68.1,123.3,68.1
			C123.3,68.1,123.3,68.1,123.3,68.1 M129.3,68.1c0.3,0.3,0.6,0.7,0.8,1.1l0,0C129.9,68.8,129.6,68.5,129.3,68.1 M129.3,68.1
			C129.3,68.1,129.3,68.1,129.3,68.1C129.3,68.1,129.3,68.1,129.3,68.1 M129.3,68.1C129.3,68.1,129.3,68.1,129.3,68.1
			C129.3,68.1,129.3,68.1,129.3,68.1 M129.2,68.1C129.2,68.1,129.2,68.1,129.2,68.1C129.2,68.1,129.2,68.1,129.2,68.1 M128,67.2
			C128,67.2,128,67.2,128,67.2C128,67.2,128,67.2,128,67.2 M124.7,67.2c-0.5,0.2-1,0.5-1.4,0.9c0.3-0.3,0.7-0.6,1.1-0.8
			C124.5,67.3,124.6,67.3,124.7,67.2 M124.7,67.2C124.7,67.2,124.7,67.2,124.7,67.2C124.7,67.2,124.7,67.2,124.7,67.2 M126.2,66.9
			C126.2,66.9,126.2,66.9,126.2,66.9C126.2,66.9,126.2,66.9,126.2,66.9 M126.3,66.9C126.3,66.9,126.3,66.9,126.3,66.9
			C126.3,66.9,126.3,66.9,126.3,66.9c0.6,0,1.1,0.1,1.7,0.3C127.5,67,126.9,66.9,126.3,66.9"/>
	</g>
	<rect x="82.1" y="132.2" fill="#B552C0" width="31.9" height="7.8"/>
</g>
</svg>
